<svg version="1.1" xmlns="http://www.w3.org/2000/svg" xmlns:xlink="http://www.w3.org/1999/xlink" preserveAspectRatio="xMidYMid meet" viewBox="623 370 113 88"><g data-item-type="shape" data-item="Shape" data-logo-item="" id="logo__item--shape_1" class="logo__item">
    <g class="logo__item__inner" transform="translate(637.5 364) scale(1 1) rotate(0 0 0)">

<g>
	<path fill="#ff9800" d="M43,91.5C20.7,91.5,2.5,73.3,2.5,51S20.7,10.5,43,10.5S83.5,28.7,83.5,51S65.3,91.5,43,91.5z M43,20.7   c-16.7,0-30.3,13.6-30.3,30.3S26.3,81.2,43,81.2S73.3,67.7,73.3,51S59.7,20.7,43,20.7z" data-part-id="logo__item--shape_1__0"></path>
</g>

    </g>
</g><g data-item-type="shape" data-item="Shape" data-logo-item="" id="logo__item--shape_2" class="logo__item">
    <g class="logo__item__inner" transform="translate(637.3500022888184 363.85000228881836) scale(1 1) rotate(0 0 0)">

<g>
	<g>
		<path fill="#ff9800" d="M59.2,91.7H26.8c-13.5,0-24.4-10.9-24.4-24.4V34.8c0-13.5,10.9-24.4,24.4-24.4h32.5    c13.5,0,24.4,10.9,24.4,24.4v32.5C83.7,80.7,72.7,91.7,59.2,91.7z M26.8,20.1c-8.1,0-14.7,6.6-14.7,14.7v32.5    c0,8.1,6.6,14.7,14.7,14.7h32.5c8.1,0,14.7-6.6,14.7-14.7V34.8c0-8.1-6.6-14.7-14.7-14.7H26.8z" data-part-id="logo__item--shape_2__0"></path>
	</g>
</g>

    </g>
</g><g data-item-type="text" data-item="Business" id="logo__item--business" class="logo__item">
                <g class="logo__item__inner" transform="translate(670 426.6784301773243) scale(1 1) rotate(0 0 0)">
                    <text data-part-id="logo__item--business" dy="0" dominant-baseline="auto" alignment-baseline="auto" font-family="Roboto Slab" font-size="32px" fill="#2979ff" letter-spacing="5" font-weight="normal" font-style="normal" data-font-family="Roboto Slab" data-font-weight="normal" data-font-style="normal" data-ttf-url="/builder_assets/fontsttf/font-montserrat-bold-normal.ttf" data-font-filename="roboto-slab-normal-normal"></text>
                </g>
            </g><g data-item-type="shape" data-item="Shape" data-logo-item="" id="logo__item--shape_3" class="logo__item">
    <g class="logo__item__inner" transform="translate(636.5500030517578 382.64999771118164) scale(1.0110490722784138 1.0110490722784138) rotate(0.3357704575955325 49.65367623797747 18.42231378060145)">

<g>
	<path fill="#fff" d="M3.6,35.6c9.2,19.5,46,22.7,46,22.7c52.3,4.4,34-20.2,34-20.2l0,0c12.5,4.7,12.5,10.7,12.5,10.7   c1.7,19.5-39.6,16-39.6,16c-17.3-2.1-29-5.8-36.8-9.8c18,12.2,43.5,16.3,43.5,16.3C3,67.2,3.3,39.2,3.6,36.1   C3.6,35.8,3.6,35.6,3.6,35.6z" data-part-id="logo__item--shape_3__0"></path>
</g>

    </g>
</g><g data-item-type="shape" data-item="Shape" data-logo-item="" id="logo__item--shape_4" class="logo__item">
    <g class="logo__item__inner" transform="translate(623.5500030517578 409.64999771118164) scale(1.02019557063211 1.02019557063211) rotate(-179.78767064568743 49.44999694824219 17.85000228881836)">

<g>
	<path fill="#fff" d="M3.6,35.6c9.2,19.5,46,22.7,46,22.7c52.3,4.4,34-20.2,34-20.2l0,0c12.5,4.7,12.5,10.7,12.5,10.7   c1.7,19.5-39.6,16-39.6,16c-17.3-2.1-29-5.8-36.8-9.8c18,12.2,43.5,16.3,43.5,16.3C3,67.2,3.3,39.2,3.6,36.1   C3.6,35.8,3.6,35.6,3.6,35.6z" data-part-id="logo__item--shape_4__0"></path>
</g>

    </g>
</g></svg>
